<?xml version="1.0" encoding="utf-8"?>
<!-- Generator: Adobe Illustrator 16.0.0, SVG Export Plug-In . SVG Version: 6.00 Build 0)  -->
<!DOCTYPE svg PUBLIC "-//W3C//DTD SVG 1.1//EN" "http://www.w3.org/Graphics/SVG/1.1/DTD/svg11.dtd">
<svg version="1.1" id="Layer_1" xmlns="http://www.w3.org/2000/svg" xmlns:xlink="http://www.w3.org/1999/xlink" x="0px" y="0px"
	 width="188.527px" height="166.819px" viewBox="0 0 188.527 166.819" enable-background="new 0 0 188.527 166.819"
	 xml:space="preserve">
<g>
	<g>
		<path fill="#00B7D5" d="M29.265,154.788v-15.813h5.975v16.358l0,0c-0.127,1.852-1.404,3.355-2.906,3.831
			c-2.748,0.994-5.752,0.447-7.924-1.307l0,0L9.136,144.279l0,0c-0.893-0.575-1.914-0.479-2.617,0.127c0,0-0.383,0.319-0.383,1.18
			l0,0v13.868H0v-15.079l0,0c0.191-2.844,3.036-4.697,5.497-5.242c4.408-1.02,8.242,1.186,11.246,4.345l0,0L29.265,154.788
			L29.265,154.788z"/>
		<path fill="#00B7D5" d="M106.931,154.788v-15.813h5.977v16.358l0,0c-0.13,1.852-1.438,3.355-2.906,3.831
			c-2.781,0.994-5.752,0.447-7.925-1.307l0,0l-15.241-13.578l0,0c-0.891-0.575-1.916-0.479-2.649,0.127c0,0-0.353,0.319-0.353,1.18
			l0,0v13.868h-6.131v-15.079l0,0c0.192-2.844,3.034-4.697,5.461-5.242c4.44-1.02,8.242,1.186,11.247,4.345l0,0L106.931,154.788
			L106.931,154.788z"/>
		<path fill="#00B7D5" d="M55.527,143.641c0.384,0,0.8,0.125,1.279,0.447c0,0,0.414,0.35,0.638,0.607l0,0l12.206,14.759h6.676
			l-14.314-17.636l0,0c-0.893-0.957-1.785-1.564-1.785-1.564c-1.311-0.863-2.973-1.279-4.699-1.246l0,0l0,0l0,0
			c-1.692-0.033-3.353,0.383-4.697,1.246c0,0-0.862,0.607-1.754,1.564l0,0l-14.314,17.636h6.677l12.203-14.759l0,0
			c0.226-0.258,0.64-0.607,0.64-0.607C54.761,143.766,55.177,143.641,55.527,143.641L55.527,143.641L55.527,143.641L55.527,143.641z
			"/>
		<path fill="#00B7D5" d="M167.729,143.641c0.384,0,0.798,0.125,1.28,0.447c0,0,0.415,0.35,0.638,0.607l0,0l12.203,14.759h6.677
			l-14.312-17.636l0,0c-0.897-0.957-1.787-1.564-1.787-1.564c-1.311-0.863-2.978-1.279-4.699-1.246l0,0l0,0l0,0
			c-1.691-0.033-3.354,0.383-4.695,1.246c0,0-0.863,0.607-1.757,1.564l0,0l-14.313,17.636h6.678l12.205-14.759l0,0
			c0.222-0.258,0.636-0.607,0.636-0.607C166.962,143.766,167.38,143.641,167.729,143.641L167.729,143.641L167.729,143.641
			L167.729,143.641z"/>
		<path fill="#00B7D5" d="M139.902,156.865c-1.435,1.118-2.331,1.502-4.375,2.173c-6.009,1.853-15.271,0.354-19.042-6.038
			c-1.184-1.789-1.277-3.546-1.374-4.408l0,0l0,0v-9.617h6.036v9.809l0,0c0.164,1.819,1.247,3.421,2.878,4.567
			c3.771,2.011,8.978,2.075,12.81,0.351c1.791-1.081,3.004-3.002,3.1-5.047l0,0v-9.68h5.816v13.994l0,0
			c0.224,8.594-3.42,11.053-7.125,12.461c-4.727,1.787-9.873,1.755-14.89,0.449c-2.81-0.93-5.397-2.465-7.125-5.049l0,0l0.099-0.131
			l0,0c2.586,0.131,4.92,0,7.44,0.066c2.94,1.501,6.39,1.85,9.749,1.147c1.753-0.317,3.544-1.083,4.854-2.363
			C138.753,159.55,139.902,158.338,139.902,156.865L139.902,156.865L139.902,156.865z"/>
	</g>
	<g>
		<path fill="#005AA9" d="M118.179,47.856c3.481,0,6.291-2.81,6.291-6.293c0-3.448-2.81-6.261-6.291-6.261
			c-3.451,0-6.267,2.813-6.267,6.261C111.912,45.047,114.728,47.856,118.179,47.856L118.179,47.856L118.179,47.856z"/>
		<path fill="#005AA9" d="M67.094,73.131c3.45,0,6.261-2.815,6.261-6.264c0-3.481-2.811-6.293-6.261-6.293
			c-3.484,0-6.263,2.812-6.263,6.293C60.831,70.315,63.61,73.131,67.094,73.131L67.094,73.131L67.094,73.131z"/>
		<path fill="#005AA9" d="M93.036,107.668c18.497,0,35.014-9.203,44.569-23.485c8.594-12.811,23.227-21.277,39.808-21.406l0,0
			v-5.781l0,0c-18.5,0.126-34.794,9.456-44.409,23.735c-8.659,12.78-23.324,21.151-39.967,21.151
			c-16.582,0-31.246-8.371-39.906-21.151c-9.648-14.28-25.941-23.609-44.438-23.735l0,0v5.781l0,0
			c16.58,0.129,31.211,8.595,39.806,21.406C58.052,98.465,74.601,107.668,93.036,107.668L93.036,107.668L93.036,107.668z"/>
		<path fill="#005AA9" d="M93.036,0c18.497,0,35.014,9.202,44.569,23.481c8.594,12.843,23.227,21.343,39.808,21.436l0,0v5.784l0,0
			c-18.5-0.129-34.794-9.457-44.409-23.737c-8.659-12.813-23.324-21.182-39.967-21.182c-16.582,0-31.246,8.368-39.906,21.182
			c-9.648,14.28-25.941,23.607-44.438,23.737l0,0v-5.784l0,0c16.58-0.093,31.211-8.593,39.806-21.436
			C58.052,9.202,74.601,0,93.036,0L93.036,0L93.036,0z"/>
		<path fill="#005AA9" d="M120.415,26.355c-1.186-1.18-3.355-2.586-7.025-2.586c-5.499,0-12.978,3.228-20.707,8.754
			c-1.564-1.119-3.133-2.14-4.664-3.066c0.191-2.303-0.543-4.635-2.301-6.391l0,0l0,0c-3.098-3.131-8.178-3.131-11.309,0
			c-0.258,0.255-0.479,0.509-0.701,0.799c-0.578-0.064-1.152-0.097-1.729-0.097c-3.641,0-5.846,1.407-7.028,2.586
			c-5.527,5.53-1.566,16.838,6.231,27.765c-1.15,1.597-2.205,3.228-3.196,4.823c1.821,0.225,3.483,0.959,4.792,2.27
			c0.161,0.159,0.288,0.351,0.448,0.542c0.512-0.894,1.117-1.821,1.724-2.714c1.917,2.3,3.963,4.566,6.104,6.708
			c2.201,2.205,4.471,4.28,6.74,6.165c-6.678,4.506-12.396,6.617-15.816,6.617c-1.311,0-2.266-0.29-2.841-0.865
			c-0.576-0.575-0.863-1.535-0.863-2.842v-0.034c-0.384,0.062-0.767,0.096-1.151,0.096c-1.691,0-3.289-0.512-4.631-1.47l0,0l0,0
			c-0.322,3.42,0.382,6.359,2.459,8.404c1.182,1.181,3.387,2.588,7.028,2.588c5.529,0,13.003-3.198,20.703-8.726
			c1.566,1.12,3.129,2.143,4.666,3.071c-0.034,0.287-0.034,0.541-0.034,0.796c0,2.111,0.83,4.122,2.333,5.657
			c1.503,1.502,3.513,2.332,5.654,2.332s4.154-0.83,5.688-2.332l0,0l0,0c0.257-0.291,0.514-0.574,0.733-0.863
			c0.579,0.064,1.153,0.064,1.667,0.064c3.67,0,5.84-1.407,7.025-2.588c1.215-1.151,2.617-3.324,2.617-6.996
			c0-5.527-3.257-13.004-8.785-20.737c1.121-1.533,2.141-3.099,3.069-4.63c-1.824-0.195-3.485-0.961-4.792-2.236
			c-0.163-0.194-0.289-0.388-0.448-0.545c-0.479,0.832-1.021,1.661-1.599,2.526c-1.885-2.269-3.93-4.539-6.164-6.743
			c-2.207-2.203-4.441-4.249-6.711-6.134c6.678-4.535,12.365-6.645,15.787-6.645c1.338,0,2.295,0.289,2.872,0.863
			c0.606,0.605,0.896,1.692,0.831,3.1c0.383-0.067,0.732-0.098,1.116-0.098c1.726,0,3.354,0.542,4.729,1.566
			c0.061-0.607,0.094-1.182,0.094-1.727C123.032,29.71,121.63,27.539,120.415,26.355L120.415,26.355L120.415,26.355L120.415,26.355z
			 M87.796,36.324c-2.269,1.885-4.539,3.931-6.74,6.134c-2.141,2.141-4.219,4.409-6.135,6.771
			c-4.506-6.708-6.646-12.425-6.646-15.845c0-1.309,0.287-2.269,0.863-2.842c0.575-0.574,1.53-0.863,2.841-0.863
			c0.035,0,0.096,0,0.128,0c0.223,1.789,0.991,3.451,2.301,4.726c1.5,1.505,3.514,2.336,5.656,2.336
			c1.979,0,3.832-0.704,5.303-1.984C86.167,35.238,86.965,35.749,87.796,36.324L87.796,36.324z M78.562,54.12
			c1.917-2.429,4.153-4.952,6.676-7.477c2.526-2.523,5.019-4.759,7.444-6.709c2.429,1.95,4.92,4.186,7.478,6.709
			c2.524,2.524,4.761,5.047,6.678,7.477c-1.917,2.429-4.153,4.921-6.678,7.443c-2.558,2.557-5.049,4.761-7.478,6.709
			c-2.426-1.948-4.918-4.152-7.444-6.709C82.716,59.041,80.479,56.549,78.562,54.12L78.562,54.12z M97.571,71.914
			c2.301-1.885,4.535-3.96,6.742-6.165c2.234-2.207,4.279-4.472,6.164-6.742c6.201,9.17,7.923,16.518,5.784,18.659
			c-0.577,0.576-1.534,0.865-2.872,0.865c-0.034,0-0.066,0-0.132,0c-0.224-1.76-0.989-3.356-2.269-4.635
			c-1.533-1.536-3.546-2.364-5.688-2.364c-1.949,0-3.768,0.704-5.238,1.981C99.265,73,98.435,72.458,97.571,71.914L97.571,71.914z
			 M84.536,33.226c-1.181,1.18-2.779,1.821-4.47,1.821c-1.697,0-3.292-0.641-4.473-1.821c-1.184-1.214-1.854-2.812-1.854-4.474
			c0-1.693,0.67-3.292,1.854-4.473c1.181-1.213,2.775-1.852,4.473-1.852c1.691,0,3.289,0.639,4.47,1.852
			C86.998,26.74,86.998,30.734,84.536,33.226L84.536,33.226L84.536,33.226L84.536,33.226z M100.828,83.992
			c-1.181-1.183-1.853-2.748-1.853-4.442c0-1.693,0.672-3.257,1.853-4.471c1.218-1.183,2.813-1.855,4.474-1.855
			c1.692,0,3.291,0.672,4.476,1.855c1.212,1.213,1.853,2.777,1.853,4.471c0,1.695-0.641,3.26-1.853,4.442
			c-1.185,1.215-2.783,1.854-4.476,1.854C103.642,85.846,102.046,85.207,100.828,83.992L100.828,83.992L100.828,83.992z"/>
	</g>
</g>
</svg>
